<svg id="footer-youtube" xmlns="http://www.w3.org/2000/svg" width="26" height="18.123" viewBox="0 0 26 18.123">
  <path id="Path_130" data-name="Path 130" d="M25.551,17.591a3.285,3.285,0,0,0-2.811-2.555A87.362,87.362,0,0,0,13,14.676a87.376,87.376,0,0,0-9.737.36A3.284,3.284,0,0,0,.458,17.591,27.845,27.845,0,0,0,0,23.737a27.836,27.836,0,0,0,.453,6.146,3.284,3.284,0,0,0,2.81,2.555A87.3,87.3,0,0,0,13,32.8a87.284,87.284,0,0,0,9.736-.36,3.285,3.285,0,0,0,2.81-2.555A27.823,27.823,0,0,0,26,23.737,27.84,27.84,0,0,0,25.551,17.591ZM9.645,27.773v-8.6l8.266,4.312Z" transform="translate(0 -14.676)" fill="#1d3663"/>
</svg>
