<svg id="footer-linkedin" xmlns="http://www.w3.org/2000/svg" width="26" height="26" viewBox="0 0 26 26">
  <path id="Path_127" data-name="Path 127" d="M25.31,25.394h.007V15.844c0-4.672-1.006-8.27-6.467-8.27a5.669,5.669,0,0,0-5.107,2.807h-.076V8.01H8.489V25.393h5.392V16.786c0-2.266.43-4.458,3.236-4.458,2.765,0,2.807,2.586,2.807,4.6v8.463Z" transform="translate(0.683 0.606)" fill="#1d3663"/>
  <path id="Path_128" data-name="Path 128" d="M.4,7.977h5.4V25.36H.4Z" transform="translate(0.034 0.64)" fill="#1d3663"/>
  <path id="Path_129" data-name="Path 129" d="M3.127,0A3.141,3.141,0,1,0,6.253,3.127,3.128,3.128,0,0,0,3.127,0Z" fill="#1d3663"/>
</svg>
