<svg xmlns="http://www.w3.org/2000/svg" xmlns:xlink="http://www.w3.org/1999/xlink" width="26" height="26" viewBox="0 0 26 26">
  <defs>
    <clipPath id="clip-path">
      <rect id="Rectangle_512" data-name="Rectangle 512" width="26" height="26" fill="none"/>
    </clipPath>
  </defs>
  <g id="Instagram" clip-path="url(#clip-path)">
    <path id="Path_3" data-name="Path 3" d="M13,2.307a39.86,39.86,0,0,1,5.2.145,6.7,6.7,0,0,1,2.455.433,5.073,5.073,0,0,1,2.455,2.455A6.7,6.7,0,0,1,23.541,7.8c0,1.3.145,1.733.145,5.2a39.861,39.861,0,0,1-.145,5.2,6.7,6.7,0,0,1-.433,2.455,5.073,5.073,0,0,1-2.455,2.455,6.7,6.7,0,0,1-2.455.433c-1.3,0-1.733.145-5.2.145a39.861,39.861,0,0,1-5.2-.145,6.7,6.7,0,0,1-2.455-.433,5.073,5.073,0,0,1-2.455-2.455A6.7,6.7,0,0,1,2.451,18.2c0-1.3-.145-1.733-.145-5.2a39.859,39.859,0,0,1,.145-5.2,6.7,6.7,0,0,1,.433-2.455A5.188,5.188,0,0,1,3.9,3.9,2.442,2.442,0,0,1,5.341,2.884,6.7,6.7,0,0,1,7.8,2.451,39.862,39.862,0,0,1,13,2.306M13,0A42.678,42.678,0,0,0,7.651.141,8.917,8.917,0,0,0,4.474.718,5.655,5.655,0,0,0,2.163,2.163,5.655,5.655,0,0,0,.718,4.474,6.581,6.581,0,0,0,.141,7.651,42.68,42.68,0,0,0,0,13a42.679,42.679,0,0,0,.145,5.345,8.917,8.917,0,0,0,.578,3.178,5.655,5.655,0,0,0,1.444,2.311,5.655,5.655,0,0,0,2.311,1.445,8.917,8.917,0,0,0,3.178.578A42.682,42.682,0,0,0,13,26a42.679,42.679,0,0,0,5.345-.145,8.917,8.917,0,0,0,3.178-.578,6.06,6.06,0,0,0,3.755-3.755,8.917,8.917,0,0,0,.578-3.178C25.851,16.9,26,16.463,26,13a42.681,42.681,0,0,0-.145-5.345,8.917,8.917,0,0,0-.578-3.178,5.655,5.655,0,0,0-1.444-2.311A5.655,5.655,0,0,0,21.518.718,8.917,8.917,0,0,0,18.341.141,42.679,42.679,0,0,0,13,0m0,6.355A6.537,6.537,0,0,0,6.351,13,6.645,6.645,0,1,0,13,6.351m0,10.978A4.256,4.256,0,0,1,8.663,13,4.256,4.256,0,0,1,13,8.663,4.256,4.256,0,0,1,17.329,13,4.256,4.256,0,0,1,13,17.329M19.929,4.474a1.589,1.589,0,1,0,1.589,1.589,1.589,1.589,0,0,0-1.589-1.589" transform="translate(0.004 0.004)" fill="#1a5985" fill-rule="evenodd"/>
  </g>
</svg>
