<svg xmlns="http://www.w3.org/2000/svg" width="108.306" height="80" viewBox="0 0 108.306 80">
  <path id="Path_133" data-name="Path 133" d="M113.77-3.172C85.157,1.5,67.055,20.478,67.055,45.879c0,18.394,11.095,30.949,27.445,30.949,12.847,0,21.606-8.467,21.606-20.438,0-10.511-7.007-18.1-17.226-18.1-4.38,0-7.3.876-12.555,4.38.292-17.226,9.051-27.737,27.445-32.7Zm-59.255,0C25.9,1.5,7.8,20.478,7.8,45.879c0,18.394,11.095,30.949,27.445,30.949,12.847,0,21.606-8.467,21.606-20.438,0-10.511-7.007-18.1-17.226-18.1-4.38,0-7.3.876-12.555,4.38.292-17.226,9.051-28.029,27.445-32.7Z" transform="translate(-7.8 3.172)" fill="#ed2127" opacity="0.2"/>
</svg>
