<svg xmlns="http://www.w3.org/2000/svg" xmlns:xlink="http://www.w3.org/1999/xlink" width="26" height="26" viewBox="0 0 26 26">
  <defs>
    <clipPath id="clip-path">
      <rect id="Rectangle_513" data-name="Rectangle 513" width="26" height="26" fill="none"/>
    </clipPath>
  </defs>
  <g id="Twitter" clip-path="url(#clip-path)">
    <rect id="Rectangle_393" data-name="Rectangle 393" width="26" height="26" fill="none"/>
    <path id="Path_2" data-name="Path 2" d="M46.169,22.925A14.915,14.915,0,0,0,61.218,7.876V7.159A11.65,11.65,0,0,0,63.8,4.436a11.9,11.9,0,0,1-3.01.86,5.576,5.576,0,0,0,2.293-2.863,13.146,13.146,0,0,1-3.293,1.29A5.119,5.119,0,0,0,55.916,2a5.385,5.385,0,0,0-5.3,5.3,2.794,2.794,0,0,0,.143,1.147A14.82,14.82,0,0,1,39.863,2.86a5.489,5.489,0,0,0-.717,2.723,5.694,5.694,0,0,0,2.293,4.443A4.832,4.832,0,0,1,39,9.309h0a5.238,5.238,0,0,0,4.3,5.159,4.42,4.42,0,0,1-1.433.143,2.439,2.439,0,0,1-1-.143A5.43,5.43,0,0,0,45.882,18.2a10.821,10.821,0,0,1-6.593,2.293A3.968,3.968,0,0,1,38,20.346a13.528,13.528,0,0,0,8.169,2.58" transform="translate(-38 -0.268)" fill="#1d3663" fill-rule="evenodd"/>
  </g>
</svg>
